<svg width="56" height="56" viewBox="0 0 56 56" fill="none" xmlns="http://www.w3.org/2000/svg">
<path d="M28 56C43.464 56 56 43.464 56 28C56 12.536 43.464 0 28 0C12.536 0 0 12.536 0 28C0 43.464 12.536 56 28 56Z" fill="#007BFF"/>
<path d="M8 38C21.3333 18 34.6667 18 48 38" stroke="white" stroke-width="4" stroke-linecap="round"/>
<path d="M8 42C10.2091 42 12 40.2091 12 38C12 35.7909 10.2091 34 8 34C5.79086 34 4 35.7909 4 38C4 40.2091 5.79086 42 8 42Z" fill="white"/>
<path d="M48 42C50.2091 42 52 40.2091 52 38C52 35.7909 50.2091 34 48 34C45.7909 34 44 35.7909 44 38C44 40.2091 45.7909 42 48 42Z" fill="white"/>
</svg>
