<svg width="227" height="56" viewBox="0 0 227 56" fill="none" xmlns="http://www.w3.org/2000/svg">
<path d="M28 56C43.464 56 56 43.464 56 28C56 12.536 43.464 0 28 0C12.536 0 0 12.536 0 28C0 43.464 12.536 56 28 56Z" fill="#007BFF"/>
<path d="M8 38C21.3333 18 34.6667 18 48 38" stroke="white" stroke-width="4" stroke-linecap="round"/>
<path d="M8 42C10.2091 42 12 40.2091 12 38C12 35.7909 10.2091 34 8 34C5.79086 34 4 35.7909 4 38C4 40.2091 5.79086 42 8 42Z" fill="white"/>
<path d="M48 42C50.2091 42 52 40.2091 52 38C52 35.7909 50.2091 34 48 34C45.7909 34 44 35.7909 44 38C44 40.2091 45.7909 42 48 42Z" fill="white"/>
<path d="M90.252 27.877H83.7305V23.7637H90.252C91.2598 23.7637 92.0801 23.5996 92.7129 23.2715C93.3457 22.9316 93.8086 22.4629 94.1016 21.8652C94.3945 21.2676 94.541 20.5938 94.541 19.8438C94.541 19.082 94.3945 18.373 94.1016 17.7168C93.8086 17.0605 93.3457 16.5332 92.7129 16.1348C92.0801 15.7363 91.2598 15.5371 90.252 15.5371H85.5586V37H80.2852V11.4062H90.252C92.2559 11.4062 93.9727 11.7695 95.4023 12.4961C96.8438 13.2109 97.9453 14.2012 98.707 15.4668C99.4688 16.7324 99.8496 18.1797 99.8496 19.8086C99.8496 21.4609 99.4688 22.8906 98.707 24.0977C97.9453 25.3047 96.8438 26.2363 95.4023 26.8926C93.9727 27.5488 92.2559 27.877 90.252 27.877ZM108.234 22.1289V37H103.172V17.9805H107.936L108.234 22.1289ZM113.965 17.8574L113.877 22.5508C113.631 22.5156 113.332 22.4863 112.98 22.4629C112.641 22.4277 112.33 22.4102 112.049 22.4102C111.334 22.4102 110.713 22.5039 110.186 22.6914C109.67 22.8672 109.236 23.1309 108.885 23.4824C108.545 23.834 108.287 24.2617 108.111 24.7656C107.947 25.2695 107.854 25.8438 107.83 26.4883L106.811 26.1719C106.811 24.9414 106.934 23.8105 107.18 22.7793C107.426 21.7363 107.783 20.8281 108.252 20.0547C108.732 19.2812 109.318 18.6836 110.01 18.2617C110.701 17.8398 111.492 17.6289 112.383 17.6289C112.664 17.6289 112.951 17.6523 113.244 17.6992C113.537 17.7344 113.777 17.7871 113.965 17.8574ZM115.02 27.6836V27.3145C115.02 25.9199 115.219 24.6367 115.617 23.4648C116.016 22.2812 116.596 21.2559 117.357 20.3887C118.119 19.5215 119.057 18.8477 120.17 18.3672C121.283 17.875 122.561 17.6289 124.002 17.6289C125.443 17.6289 126.727 17.875 127.852 18.3672C128.977 18.8477 129.92 19.5215 130.682 20.3887C131.455 21.2559 132.041 22.2812 132.439 23.4648C132.838 24.6367 133.037 25.9199 133.037 27.3145V27.6836C133.037 29.0664 132.838 30.3496 132.439 31.5332C132.041 32.7051 131.455 33.7305 130.682 34.6094C129.92 35.4766 128.982 36.1504 127.869 36.6309C126.756 37.1113 125.479 37.3516 124.037 37.3516C122.596 37.3516 121.312 37.1113 120.188 36.6309C119.074 36.1504 118.131 35.4766 117.357 34.6094C116.596 33.7305 116.016 32.7051 115.617 31.5332C115.219 30.3496 115.02 29.0664 115.02 27.6836ZM120.082 27.3145V27.6836C120.082 28.4805 120.152 29.2246 120.293 29.916C120.434 30.6074 120.656 31.2168 120.961 31.7441C121.277 32.2598 121.688 32.6641 122.191 32.957C122.695 33.25 123.311 33.3965 124.037 33.3965C124.74 33.3965 125.344 33.25 125.848 32.957C126.352 32.6641 126.756 32.2598 127.061 31.7441C127.365 31.2168 127.588 30.6074 127.729 29.916C127.881 29.2246 127.957 28.4805 127.957 27.6836V27.3145C127.957 26.541 127.881 25.8145 127.729 25.1348C127.588 24.4434 127.359 23.834 127.043 23.3066C126.738 22.7676 126.334 22.3457 125.83 22.041C125.326 21.7363 124.717 21.584 124.002 21.584C123.287 21.584 122.678 21.7363 122.174 22.041C121.682 22.3457 121.277 22.7676 120.961 23.3066C120.656 23.834 120.434 24.4434 120.293 25.1348C120.152 25.8145 120.082 26.541 120.082 27.3145ZM136.43 17.9805H141.51V38.1426C141.51 39.5488 141.252 40.7383 140.736 41.7109C140.221 42.6836 139.477 43.4219 138.504 43.9258C137.531 44.4297 136.354 44.6816 134.971 44.6816C134.537 44.6816 134.115 44.6582 133.705 44.6113C133.283 44.5645 132.85 44.4883 132.404 44.3828L132.422 40.498C132.703 40.5449 132.979 40.5801 133.248 40.6035C133.506 40.6387 133.77 40.6562 134.039 40.6562C134.566 40.6562 135.006 40.5684 135.357 40.3926C135.709 40.2168 135.973 39.9414 136.148 39.5664C136.336 39.2031 136.43 38.7285 136.43 38.1426V17.9805ZM136.025 13.0234C136.025 12.2852 136.283 11.6758 136.799 11.1953C137.326 10.7148 138.018 10.4746 138.873 10.4746C139.74 10.4746 140.432 10.7148 140.947 11.1953C141.463 11.6758 141.721 12.2852 141.721 13.0234C141.721 13.7617 141.463 14.3711 140.947 14.8516C140.432 15.332 139.74 15.5723 138.873 15.5723C138.018 15.5723 137.326 15.332 136.799 14.8516C136.283 14.3711 136.025 13.7617 136.025 13.0234ZM154.289 37.3516C152.812 37.3516 151.488 37.1172 150.316 36.6484C149.145 36.168 148.148 35.5059 147.328 34.6621C146.52 33.8184 145.898 32.8398 145.465 31.7266C145.031 30.6016 144.814 29.4062 144.814 28.1406V27.4375C144.814 25.9961 145.02 24.6777 145.43 23.4824C145.84 22.2871 146.426 21.25 147.188 20.3711C147.961 19.4922 148.898 18.8184 150 18.3496C151.102 17.8691 152.344 17.6289 153.727 17.6289C155.074 17.6289 156.27 17.8516 157.312 18.2969C158.355 18.7422 159.229 19.375 159.932 20.1953C160.646 21.0156 161.186 22 161.549 23.1484C161.912 24.2852 162.094 25.5508 162.094 26.9453V29.0547H146.977V25.6797H157.119V25.293C157.119 24.5898 156.99 23.9629 156.732 23.4121C156.486 22.8496 156.111 22.4043 155.607 22.0762C155.104 21.748 154.459 21.584 153.674 21.584C153.006 21.584 152.432 21.7305 151.951 22.0234C151.471 22.3164 151.078 22.7266 150.773 23.2539C150.48 23.7812 150.258 24.4023 150.105 25.1172C149.965 25.8203 149.895 26.5938 149.895 27.4375V28.1406C149.895 28.9023 150 29.6055 150.211 30.25C150.434 30.8945 150.744 31.4512 151.143 31.9199C151.553 32.3887 152.045 32.752 152.619 33.0098C153.205 33.2676 153.867 33.3965 154.605 33.3965C155.52 33.3965 156.369 33.2207 157.154 32.8691C157.951 32.5059 158.637 31.9609 159.211 31.2344L161.672 33.9062C161.273 34.4805 160.729 35.0312 160.037 35.5586C159.357 36.0859 158.537 36.5195 157.576 36.8594C156.615 37.1875 155.52 37.3516 154.289 37.3516ZM172.834 33.3965C173.455 33.3965 174.006 33.2793 174.486 33.0449C174.967 32.7988 175.342 32.459 175.611 32.0254C175.893 31.5801 176.039 31.0586 176.051 30.4609H180.814C180.803 31.7969 180.445 32.9863 179.742 34.0293C179.039 35.0605 178.096 35.875 176.912 36.4727C175.729 37.0586 174.404 37.3516 172.939 37.3516C171.463 37.3516 170.174 37.1055 169.072 36.6133C167.982 36.1211 167.074 35.4414 166.348 34.5742C165.621 33.6953 165.076 32.6758 164.713 31.5156C164.35 30.3438 164.168 29.0898 164.168 27.7539V27.2441C164.168 25.8965 164.35 24.6426 164.713 23.4824C165.076 22.3105 165.621 21.291 166.348 20.4238C167.074 19.5449 167.982 18.8594 169.072 18.3672C170.162 17.875 171.439 17.6289 172.904 17.6289C174.463 17.6289 175.828 17.9277 177 18.5254C178.184 19.123 179.109 19.9785 179.777 21.0918C180.457 22.1934 180.803 23.5 180.814 25.0117H176.051C176.039 24.3789 175.904 23.8047 175.646 23.2891C175.4 22.7734 175.037 22.3633 174.557 22.0586C174.088 21.7422 173.508 21.584 172.816 21.584C172.078 21.584 171.475 21.7422 171.006 22.0586C170.537 22.3633 170.174 22.7852 169.916 23.3242C169.658 23.8516 169.477 24.4551 169.371 25.1348C169.277 25.8027 169.23 26.5059 169.23 27.2441V27.7539C169.23 28.4922 169.277 29.2012 169.371 29.8809C169.465 30.5605 169.641 31.1641 169.898 31.6914C170.168 32.2188 170.537 32.6348 171.006 32.9395C171.475 33.2441 172.084 33.3965 172.834 33.3965ZM193.066 17.9805V21.5664H181.992V17.9805H193.066ZM184.734 13.2871H189.797V31.2695C189.797 31.8203 189.867 32.2422 190.008 32.5352C190.16 32.8281 190.383 33.0332 190.676 33.1504C190.969 33.2559 191.338 33.3086 191.783 33.3086C192.1 33.3086 192.381 33.2969 192.627 33.2734C192.885 33.2383 193.102 33.2031 193.277 33.168L193.295 36.8945C192.861 37.0352 192.393 37.1465 191.889 37.2285C191.385 37.3105 190.828 37.3516 190.219 37.3516C189.105 37.3516 188.133 37.1699 187.301 36.8066C186.48 36.4316 185.848 35.834 185.402 35.0137C184.957 34.1934 184.734 33.1152 184.734 31.7793V13.2871ZM207.709 11.4062V37H202.453V11.4062H207.709ZM215.584 11.4062V15.5371H194.701V11.4062H215.584ZM224.197 11.4062V37H218.941V11.4062H224.197Z" fill="#007BFF"/>
</svg>
